<?xml version="1.0" standalone="no"?>
<!DOCTYPE svg PUBLIC "-//W3C//DTD SVG 20010904//EN"
 "http://www.w3.org/TR/2001/REC-SVG-20010904/DTD/svg10.dtd">
<svg version="1.0" xmlns="http://www.w3.org/2000/svg"
 width="800.000000pt" height="800.000000pt" viewBox="0 0 800.000000 800.000000"
 preserveAspectRatio="xMidYMid meet">

<g transform="translate(0.000000,800.000000) scale(0.100000,-0.100000)"
fill="#000000" stroke="none">
<path d="M4603 6753 c-17 -6 -16 -18 1 -36 8 -8 16 -35 17 -60 2 -27 8 -48 16
-51 7 -3 13 -12 13 -20 0 -9 14 -23 32 -32 17 -9 37 -21 45 -28 43 -37 79 -68
85 -74 61 -64 98 -108 98 -117 0 -6 11 -21 25 -33 14 -12 25 -26 25 -32 0 -5
5 -10 10 -10 6 0 10 6 10 14 0 9 7 12 19 9 11 -3 21 2 24 11 4 9 16 16 28 16
14 0 43 21 76 55 30 30 56 55 58 55 3 0 14 9 25 20 33 33 40 24 40 -50 0 -40
-4 -70 -10 -70 -9 0 -15 28 -11 58 1 6 -3 12 -9 12 -5 0 -10 -4 -10 -10 0 -5
-7 -10 -16 -10 -11 0 -15 -6 -11 -20 3 -11 1 -20 -4 -20 -5 0 -9 -5 -9 -11 0
-5 4 -8 9 -5 13 9 36 -112 36 -192 0 -50 -5 -76 -14 -81 -7 -5 -11 -13 -8 -18
4 -6 -11 -19 -33 -29 -27 -13 -40 -27 -43 -44 -4 -24 -4 -24 -6 3 0 15 -5 27
-11 27 -6 0 -10 -30 -10 -71 0 -42 4 -68 10 -64 11 7 50 -25 50 -41 0 -6 7
-17 15 -24 13 -10 15 -49 15 -234 0 -206 -2 -225 -24 -288 -26 -74 -36 -77
-36 -11 0 24 -4 43 -8 43 -5 0 -12 93 -16 207 -4 114 -11 212 -16 218 -5 6
-12 37 -16 69 -5 38 -10 53 -16 44 -5 -8 -8 48 -6 136 l2 150 -29 8 c-34 9
-48 -5 -39 -41 8 -34 3 -485 -6 -551 l-7 -55 -2 63 c-1 75 -21 84 -21 10 -1
-54 -10 -75 -45 -94 -11 -6 -21 -21 -23 -33 -2 -15 -10 -21 -28 -21 -39 0 -64
-29 -64 -75 0 -22 -3 -57 -6 -77 -5 -31 -11 -38 -30 -38 -17 0 -24 -7 -27 -27
-2 -16 -2 38 1 120 5 144 4 152 -27 216 -4 8 -13 17 -19 19 -9 3 -10 -3 -2
-23 14 -37 1 -222 -17 -236 -10 -9 -13 -7 -13 9 0 11 -4 64 -9 118 -6 55 -12
189 -15 300 -4 151 -9 208 -21 230 -8 16 -15 43 -15 60 0 43 -18 62 -72 79
-40 12 -48 12 -59 -1 -6 -8 -19 -14 -28 -14 -10 0 -27 -10 -39 -23 -21 -22
-22 -31 -22 -250 0 -140 -4 -228 -10 -232 -5 -3 -10 -30 -10 -59 0 -55 -23
-126 -40 -126 -6 0 -10 12 -10 28 0 43 -12 102 -20 102 -4 0 -10 -9 -13 -19
-4 -16 -15 -20 -53 -23 l-49 -3 -5 -201 c-4 -180 -7 -204 -24 -223 -11 -12
-27 -21 -38 -21 -30 0 -187 -79 -268 -136 -102 -70 -242 -152 -290 -169 -78
-28 -260 -148 -260 -172 0 -6 16 -17 35 -23 19 -6 33 -15 30 -20 -3 -5 8 -11
25 -15 17 -4 28 -11 24 -16 -3 -5 3 -9 13 -10 10 0 27 -2 38 -5 11 -2 33 2 48
8 17 6 32 7 35 2 4 -5 24 -10 46 -11 22 -2 44 -10 51 -19 14 -19 87 -32 130
-23 l30 6 -27 7 c-44 13 -32 24 20 19 100 -8 132 -15 132 -25 0 -7 22 -9 60
-6 43 3 59 1 56 -7 -2 -7 6 -10 25 -7 27 4 28 5 12 18 -15 11 -15 14 -3 15 8
1 19 1 23 0 4 -1 17 4 29 10 18 10 20 9 16 -7 -14 -50 -15 -49 32 -47 178 9
267 9 277 1 7 -6 29 -7 49 -3 24 4 39 2 44 -5 12 -19 67 -2 96 28 29 32 63 35
85 8 12 -15 30 -19 85 -20 38 -1 88 2 111 7 36 7 47 5 67 -11 20 -15 43 -19
119 -21 52 -1 107 3 121 9 l27 10 -25 33 c-24 31 -24 34 -6 32 11 -1 30 -11
42 -22 36 -32 81 -51 103 -43 17 6 13 13 -39 68 -33 34 -57 65 -53 68 3 3 34
-13 69 -36 54 -36 59 -38 36 -13 -65 69 -13 44 83 -39 59 -51 70 -56 88 -34 9
10 -2 28 -50 82 -34 38 -68 79 -77 92 -10 15 -18 20 -25 13 -7 -7 -19 -3 -36
10 -14 11 -37 28 -51 39 -35 26 -23 31 36 16 50 -13 91 -34 129 -67 11 -9 29
-19 40 -21 11 -2 20 -9 20 -17 0 -7 16 -25 35 -39 19 -14 29 -20 23 -12 -18
20 -16 31 4 23 13 -5 15 -2 11 15 l-6 22 29 -21 c24 -17 29 -18 29 -5 0 22 28
6 95 -53 58 -51 97 -71 102 -55 3 8 16 5 41 -8 50 -25 88 -21 84 10 -2 15 2
22 12 22 9 0 16 5 16 11 0 5 -4 8 -9 4 -6 -3 -11 15 -13 42 -3 41 -6 48 -28
53 -24 6 -25 10 -28 83 -3 69 -5 77 -22 77 -21 0 -27 -15 -10 -25 15 -9 12
-25 -5 -25 -10 0 -15 -10 -15 -30 0 -50 -20 -34 -21 18 -1 26 -3 38 -6 27 -2
-11 -6 -30 -9 -43 -9 -42 -28 -18 -25 31 2 32 -1 47 -10 47 -8 0 -10 -11 -6
-35 7 -41 1 -43 -34 -12 -33 30 -44 114 -42 315 1 79 -2 142 -7 142 -5 0 -14
15 -19 33 -9 31 -9 31 -12 -18 -2 -27 -3 -61 -3 -75 1 -14 -5 -28 -12 -32 -16
-10 -25 -62 -25 -152 0 -42 -5 -76 -10 -76 -5 0 -7 10 -4 23 3 12 -1 43 -9 69
-9 31 -10 48 -3 51 15 5 24 1057 9 1083 -9 15 -11 0 -12 -71 0 -180 -13 -434
-22 -429 -4 3 -8 16 -8 29 0 32 -16 40 -24 12 -3 -12 -6 -87 -7 -167 0 -80 -4
-156 -8 -170 l-7 -25 -8 25 c-5 14 -11 131 -15 260 l-6 235 -27 26 c-15 15
-29 24 -32 21 -3 -3 -6 2 -6 11 0 13 9 17 36 17 33 0 36 2 28 23 -4 12 -9 75
-11 140 -3 93 -7 117 -19 117 -8 0 -14 -4 -14 -10 0 -5 -6 -10 -14 -10 -17 0
-26 102 -26 289 l0 136 -42 -43 -43 -42 3 -123 c2 -67 8 -126 13 -131 5 -6 9
-74 9 -151 0 -125 -2 -145 -19 -164 -14 -16 -21 -44 -26 -109 -3 -48 -10 -109
-14 -137 -7 -42 -9 -33 -9 60 -1 61 3 160 8 220 11 132 0 535 -12 466 -13 -76
-16 -69 -17 36 l-1 102 40 23 c22 13 40 26 40 31 0 22 -364 156 -535 196 -142
34 -186 41 -202 34z m467 -1473 c0 -5 -2 -10 -4 -10 -3 0 -8 5 -11 10 -3 6 -1
10 4 10 6 0 11 -4 11 -10z m-20 -487 c3 -3 -6 -2 -20 2 -14 4 -32 10 -40 12
-8 3 3 -12 25 -32 22 -20 31 -33 21 -29 -16 6 -17 3 -11 -17 9 -32 41 -75 53
-72 11 3 10 -11 -3 -41 -5 -12 -3 -21 6 -27 9 -6 10 -9 2 -9 -7 0 -18 11 -25
24 -40 72 -89 135 -101 130 -15 -5 -31 22 -21 37 3 5 0 9 -6 9 -7 0 -10 6 -7
13 2 6 1 24 -4 39 l-7 26 66 -29 c37 -17 69 -33 72 -36z m230 -183 c11 -8 9
-9 -12 -8 -16 1 -28 6 -28 10 0 11 22 10 40 -2z m545 -48 c-8 -8 -25 10 -19
20 4 6 9 5 15 -3 4 -7 6 -15 4 -17z m8 -72 c31 -36 37 -40 37 -22 0 11 5 24
11 28 16 9 80 -28 77 -45 -5 -23 -26 -24 -33 -2 -3 12 -11 21 -16 21 -6 0 -5
-8 1 -21 15 -28 5 -36 -18 -16 -10 10 -21 15 -24 12 -8 -9 -88 88 -87 105 0
13 1 12 7 -1 4 -9 24 -35 45 -59z m-288 40 c3 -5 2 -10 -4 -10 -5 0 -13 5 -16
10 -3 6 -2 10 4 10 5 0 13 -4 16 -10z m185 -4 c0 -8 6 -16 14 -19 8 -3 20 -16
27 -29 11 -21 9 -21 -18 5 -16 15 -34 27 -40 27 -6 0 -13 7 -17 15 -4 10 1 15
14 15 11 0 20 -6 20 -14z m-2275 -26 c-16 -10 -31 -17 -34 -14 -7 6 32 33 49
34 8 0 2 -9 -15 -20z"/>
<path d="M4536 6735 c-3 -9 2 -13 15 -12 22 2 25 13 5 20 -8 3 -17 0 -20 -8z"/>
<path d="M2870 6623 c-8 -3 -33 -13 -55 -23 -22 -11 -75 -35 -117 -54 -43 -19
-78 -40 -78 -45 0 -6 -8 -11 -18 -11 -24 0 -98 -40 -217 -117 -138 -90 -238
-168 -339 -264 l-86 -81 0 -98 c0 -74 4 -100 15 -110 18 -15 19 -77 4 -135 -6
-22 -16 -71 -23 -110 -28 -155 -111 -274 -155 -221 -12 14 -93 46 -117 46 -6
0 -17 -13 -24 -30 -7 -16 -17 -30 -23 -30 -5 0 -36 -10 -68 -21 -63 -23 -90
-56 -120 -144 -7 -22 -19 -49 -26 -60 -7 -11 -13 -32 -13 -46 0 -22 -8 -31
-37 -46 -33 -16 -41 -26 -61 -87 -27 -80 -64 -249 -87 -396 -22 -140 -32 -727
-16 -923 51 -605 294 -1163 690 -1582 232 -246 457 -412 762 -564 341 -170
678 -254 1074 -267 158 -5 169 -4 150 11 -23 19 -115 74 -195 118 -30 17 -68
40 -85 53 -16 12 -66 41 -110 65 -44 23 -94 55 -112 70 -17 15 -42 31 -55 35
-13 4 -41 18 -63 32 l-40 25 30 9 c17 5 83 11 147 15 107 5 122 4 180 -18 81
-30 220 -102 220 -115 1 -17 63 -56 178 -110 63 -30 123 -59 132 -64 17 -10
94 -1 324 34 98 15 104 15 165 -4 73 -22 105 -25 115 -9 10 16 106 6 134 -14
24 -17 24 -17 -35 -19 l-60 -1 70 -6 c64 -6 82 -3 200 35 146 46 235 82 235
95 0 5 -22 11 -50 15 -51 7 -64 18 -32 28 40 12 251 56 266 56 23 0 88 34 171
90 57 38 70 53 72 75 0 15 10 39 21 54 17 22 27 26 74 26 53 0 57 2 124 62
103 91 252 247 324 338 100 127 204 287 191 294 -6 4 -53 16 -104 26 -50 11
-84 21 -74 23 10 2 51 -4 90 -13 105 -24 106 -24 112 -15 7 11 -93 42 -106 34
-5 -3 -48 7 -95 23 l-86 28 -21 -30 c-30 -41 -84 -130 -115 -190 -14 -27 -27
-45 -29 -38 -5 13 113 245 154 302 l25 36 -6 -40 -5 -40 17 23 c15 20 25 23
58 18 169 -22 275 -28 250 -14 -9 5 -24 7 -33 4 -13 -5 -14 -4 -3 9 7 8 25 15
41 15 24 0 32 8 54 50 14 28 23 55 20 60 -4 6 -27 10 -52 10 -26 0 -43 3 -39
7 4 4 -12 13 -36 20 -136 38 -193 52 -196 48 -2 -2 7 -6 20 -10 13 -4 32 -14
43 -22 19 -14 18 -14 -12 -8 -28 6 -33 4 -33 -13 0 -11 -9 -22 -20 -25 -16 -4
-20 0 -20 22 0 51 -9 55 -260 110 -52 12 -171 39 -265 61 -93 21 -251 55 -350
75 -99 20 -191 39 -205 42 -25 6 -25 6 5 13 17 4 71 8 122 9 50 0 94 5 97 10
7 11 72 6 291 -19 269 -31 288 -33 280 -19 -13 20 242 0 270 -21 20 -15 98
-22 280 -24 l184 -2 10 28 c9 24 7 30 -7 34 -9 3 -28 10 -42 14 -48 16 -229
37 -385 44 -33 1 -67 5 -75 8 -8 4 -28 9 -44 13 -16 3 -36 15 -45 27 -13 15
-28 20 -61 20 -25 -1 -50 4 -57 10 -7 5 -29 7 -51 3 -30 -5 -44 -2 -66 16 -15
12 -25 27 -22 34 8 22 -16 35 -63 35 -32 0 -62 -10 -110 -36 -57 -32 -75 -37
-136 -38 -38 -1 -70 3 -70 7 0 5 -22 20 -50 33 -36 19 -57 24 -80 19 -52 -12
-274 -7 -409 9 -72 9 -132 13 -135 11 -2 -3 2 -6 10 -6 8 -1 1 -5 -16 -8 -23
-6 -37 -2 -62 16 -23 16 -56 27 -115 34 -50 7 -86 17 -91 25 -4 8 -21 14 -37
14 -16 0 -41 5 -57 11 -15 6 -41 12 -58 14 -16 2 -43 10 -59 19 -24 12 -33 13
-45 3 -12 -10 -14 -9 -8 5 3 9 1 19 -6 22 -8 3 -7 5 3 6 8 1 -1 7 -20 15 l-35
13 29 7 c16 5 95 2 175 -5 80 -7 156 -13 168 -14 11 0 19 -4 17 -8 -5 -8 53
-21 64 -14 5 3 18 -1 28 -9 20 -15 80 -20 87 -7 3 4 48 6 101 4 53 -2 94 -7
91 -12 -3 -5 0 -12 6 -15 5 -4 8 -12 6 -19 -10 -25 22 -48 80 -57 138 -23 179
-23 223 2 31 18 43 20 49 11 6 -10 15 -10 36 -2 21 8 32 7 44 -2 29 -23 60
-38 80 -38 10 0 24 -7 32 -16 10 -13 25 -14 83 -9 39 4 78 14 87 21 17 15 177
23 198 9 6 -3 11 1 11 9 0 20 14 21 29 2 6 -7 30 -17 53 -20 23 -4 47 -11 53
-15 16 -13 85 -21 85 -10 0 5 4 9 10 9 5 0 7 -7 4 -15 -5 -11 1 -15 23 -15 16
0 34 5 40 11 15 15 33 3 33 -21 0 -14 11 -20 53 -25 28 -4 61 -11 72 -15 13
-5 42 1 83 17 57 23 63 28 60 52 -3 23 -9 27 -55 35 -54 9 -72 25 -30 27 40 1
90 25 98 46 6 17 0 23 -37 41 -61 30 -61 58 1 68 75 11 61 22 -70 51 l-40 9
40 13 c40 14 75 37 75 52 0 4 -13 10 -30 14 -35 8 -48 23 -26 31 9 4 16 18 16
34 0 16 4 31 9 34 7 5 8 25 2 59 0 4 -13 7 -28 7 -41 0 -61 16 -31 23 20 5 25
13 26 42 1 20 8 48 16 63 9 15 18 34 22 43 6 18 45 39 70 39 8 0 13 4 9 9 -10
18 18 24 31 7 8 -11 13 -13 16 -5 3 8 14 8 43 0 22 -6 77 -11 123 -11 l83 0
-3 82 c-2 58 -7 83 -17 86 -8 3 -11 0 -7 -7 4 -6 1 -11 -7 -11 -8 0 -37 25
-64 55 -48 52 -73 67 -73 45 0 -13 34 -48 69 -73 14 -9 22 -19 19 -22 -3 -3
-20 6 -37 21 -39 33 -51 25 -21 -13 20 -26 21 -28 4 -32 -21 -4 -55 34 -48 54
3 8 2 20 -2 27 -5 7 -9 18 -9 23 -3 33 -20 94 -33 117 -19 32 -56 43 -119 33
-40 -6 -46 -10 -62 -48 -10 -23 -31 -53 -45 -67 -23 -21 -30 -23 -47 -12 -11
7 -28 10 -38 7 -19 -6 -41 -45 -41 -72 0 -14 -2 -14 -25 1 -30 20 -35 20 -35
1 0 -14 -3 -14 -23 -1 -20 14 -26 14 -51 1 -16 -8 -34 -15 -41 -15 -7 0 -18
-7 -25 -15 -6 -7 -32 -17 -56 -21 -24 -3 -44 -8 -44 -11 0 -13 67 -88 94 -104
17 -11 25 -19 17 -19 -8 0 -38 25 -68 55 -58 59 -66 64 -56 38 11 -29 -52 25
-78 67 -27 44 -37 47 -80 24 -16 -8 -38 -13 -47 -10 -9 3 -23 2 -31 -3 -9 -6
-24 -5 -38 2 -28 13 -43 -2 -43 -43 0 -23 -5 -27 -56 -36 -71 -13 -112 -7
-119 17 -5 15 -16 19 -53 19 -39 0 -57 -7 -99 -37 -28 -21 -65 -46 -82 -55
-18 -10 -30 -22 -26 -28 3 -5 -4 -12 -17 -15 -39 -9 -1838 -11 -1841 -2 -1 5
-32 8 -67 7 -36 0 -165 -3 -288 -6 -157 -4 -221 -8 -216 -16 5 -7 -2 -9 -22
-4 -17 4 -54 33 -88 69 l-59 61 28 21 c15 11 51 39 78 63 28 23 59 42 69 42
23 0 44 38 29 53 -16 16 -13 31 3 18 11 -9 20 -9 34 -2 50 27 36 89 -29 137
-55 40 -67 58 -16 23 l32 -22 -28 30 c-44 48 -34 67 38 73 33 3 70 11 82 18
28 16 50 89 34 114 -20 32 -12 55 25 77 25 15 34 26 30 38 -16 40 51 82 81 52
7 -7 17 -8 25 -3 14 10 19 11 47 13 18 1 23 12 38 99 6 35 25 41 57 17 26 -20
71 -19 92 2 15 15 16 31 10 128 l-6 110 48 66 48 66 25 -19 c50 -42 202 -110
255 -115 83 -9 117 2 179 59 49 45 115 126 115 142 0 3 -9 6 -19 6 -10 0 -65
16 -122 36 -76 26 -167 73 -344 176 -132 76 -244 143 -249 148 -6 6 31 7 90 4
l99 -6 13 28 c17 38 16 44 -13 86 -14 20 -25 41 -25 47 0 11 45 0 92 -23 36
-18 38 -19 38 -8 0 5 -33 23 -72 40 l-73 32 3 54 c3 45 7 54 20 49 10 -4 13
-2 8 5 -10 17 2 15 32 -6 48 -33 58 -36 37 -12 -27 31 -95 80 -112 80 -9 0
-13 -16 -13 -57 0 -32 -5 -65 -10 -73 -8 -12 -10 -12 -10 5 0 11 -12 38 -25
60 -14 22 -25 53 -25 68 0 19 -10 39 -31 58 -36 34 -46 36 -52 12 -3 -13 -6
-9 -11 12 -34 137 -76 215 -115 215 -8 0 -25 9 -37 21 -29 27 -90 32 -88 7 1
-14 -6 -18 -35 -18 -53 0 -66 11 -49 41 22 38 35 49 62 49 20 0 24 4 19 17 -5
12 -3 14 7 8 9 -5 11 -4 6 4 -4 6 -11 9 -15 6 -5 -2 -16 4 -26 15 -18 20 -36
23 -65 13z m-276 -794 c14 -11 26 -28 26 -37 0 -12 -7 -9 -28 11 -15 15 -38
27 -51 27 -62 0 -122 -58 -140 -135 l-9 -40 -1 36 c-1 24 8 50 27 78 53 79
122 102 176 60z m219 -79 c29 -11 62 -27 73 -35 13 -10 1 -8 -36 6 -30 12 -71
27 -90 34 -19 8 -27 14 -18 14 10 1 41 -8 71 -19z m298 -60 c14 -8 19 -21 19
-50 0 -45 5 -45 -105 5 l-60 28 50 12 c66 17 73 17 96 5z m-458 -107 c38 -7
34 -23 -6 -23 -19 0 -42 -8 -54 -20 -25 -22 -34 -10 -26 34 5 24 9 27 32 21
14 -3 38 -9 54 -12z m-232 -61 c8 -12 20 -20 28 -17 7 3 20 0 27 -6 11 -9 14
-6 14 15 0 34 26 34 34 -1 9 -32 -17 -51 -58 -44 -5 1 -6 -13 -3 -31 l7 -33
-20 23 c-21 26 -60 124 -59 150 0 10 4 7 8 -8 5 -14 14 -36 22 -48z m562 -62
c21 -33 43 -74 48 -92 10 -38 12 -88 2 -88 -3 0 -31 24 -62 53 -31 29 -71 64
-89 79 l-33 27 17 33 c35 69 67 65 117 -12z m324 -437 c-3 -10 -5 -2 -5 17 0
19 2 27 5 18 2 -10 2 -26 0 -35z m-1474 -242 c12 -13 46 -40 75 -59 39 -26 49
-38 42 -47 -20 -24 40 -106 101 -140 30 -17 60 -43 67 -57 11 -24 62 -67 148
-125 40 -28 129 -144 177 -233 43 -78 97 -211 97 -237 0 -10 -20 31 -44 90
-25 60 -63 139 -85 176 -38 65 -114 151 -132 151 -22 0 -7 -70 25 -118 18 -28
37 -67 41 -88 9 -48 30 -91 63 -126 28 -30 55 -39 30 -10 -19 22 -84 140 -92
169 -5 16 -3 21 10 19 10 -2 36 -40 66 -97 74 -145 74 -179 2 -124 -18 14 -35
25 -38 25 -3 0 7 -21 23 -47 16 -27 39 -79 50 -118 29 -97 120 -358 129 -367
4 -4 6 41 5 100 l-2 107 14 -85 c7 -47 16 -116 20 -155 l6 -70 -29 45 c-35 54
-87 102 -173 160 -35 24 -121 100 -190 169 -127 127 -189 212 -189 261 0 22 5
19 47 -30 43 -50 218 -235 335 -351 115 -116 120 -75 9 67 -35 43 -44 63 -43
88 3 45 -76 136 -197 228 -50 37 -119 130 -101 136 6 2 17 -1 24 -7 11 -9 15
-9 18 1 3 7 23 -5 51 -32 26 -23 44 -35 41 -25 -5 13 -4 16 5 11 9 -6 9 -3 -1
13 -11 18 -11 23 1 30 15 10 10 14 -41 30 -21 7 -38 18 -38 25 0 7 -9 21 -20
31 -11 10 -20 30 -20 44 -1 43 -35 103 -89 156 -28 27 -51 52 -51 56 0 4 9 9
20 12 31 8 24 22 -21 42 -24 11 -52 36 -70 61 -31 46 -99 104 -120 104 -12 0
-12 2 0 9 10 6 -2 20 -45 52 -69 51 -79 63 -59 67 8 2 15 9 15 16 0 14 37 51
60 59 8 3 23 -5 33 -17 10 -11 28 -32 40 -45z m-119 -77 c26 -20 45 -38 42
-42 -10 -9 -118 21 -123 34 -5 12 15 43 28 44 3 0 27 -16 53 -36z m874 -74
c50 -41 88 -77 86 -79 -5 -5 -107 74 -163 127 -67 63 -27 38 77 -48z m3209
-596 c-3 -3 -12 -4 -19 -1 -8 3 -5 6 6 6 11 1 17 -2 13 -5z m-2512 -114 c3 -5
1 -10 -4 -10 -6 0 -11 -7 -11 -15 0 -20 -59 -20 -86 0 -19 14 -18 14 4 15 12
0 22 5 22 10 0 6 15 10 34 10 19 0 38 -4 41 -10z m-1282 -210 c107 -188 143
-224 364 -358 82 -50 149 -109 300 -264 36 -37 86 -106 122 -168 63 -108 77
-146 41 -110 -29 29 -45 25 -94 -20 -37 -35 -49 -40 -89 -40 -48 0 -150 32
-178 57 -9 7 -22 13 -29 11 -8 -2 -35 28 -62 66 -26 39 -58 80 -70 93 -16 17
-18 23 -7 23 8 0 19 -4 25 -9 37 -34 274 -92 282 -70 2 5 19 7 38 3 62 -11 41
15 -94 118 -34 26 -70 64 -81 85 -26 49 -46 71 -96 108 -22 16 -62 49 -90 74
-27 24 -73 59 -100 77 -28 17 -56 38 -63 46 -17 21 -202 388 -202 401 0 14 34
-36 83 -123z m564 33 c-3 -10 -5 -4 -5 12 0 17 2 24 5 18 2 -7 2 -21 0 -30z
m2693 -109 c0 -8 -4 -12 -10 -9 -5 3 -10 10 -10 16 0 5 5 9 10 9 6 0 10 -7 10
-16z m525 -16 c34 -9 80 -11 145 -6 100 6 140 2 140 -14 0 -11 -605 -6 -616 5
-17 16 17 22 143 25 89 2 156 -2 188 -10z m515 -18 c0 -5 -22 -10 -50 -10 -27
0 -50 5 -50 10 0 6 23 10 50 10 28 0 50 -4 50 -10z m-247 -67 c-18 -2 -48 -2
-65 0 -18 2 -4 4 32 4 36 0 50 -2 33 -4z m130 0 c-13 -2 -33 -2 -45 0 -13 2
-3 4 22 4 25 0 35 -2 23 -4z m-3373 -58 c10 -12 10 -15 -3 -15 -8 0 -20 7 -27
15 -10 12 -10 15 3 15 8 0 20 -7 27 -15z m447 -1 c-3 -3 -12 -4 -19 -1 -8 3
-5 6 6 6 11 1 17 -2 13 -5z m183 -24 c22 -6 23 -8 7 -15 -12 -5 -31 -2 -50 8
-30 15 -31 16 -7 15 14 0 36 -3 50 -8z m745 -10 c3 -6 -1 -7 -9 -4 -18 7 -21
14 -7 14 6 0 13 -4 16 -10z m-1121 -31 c68 -12 106 -34 106 -64 0 -10 -7 -7
-24 9 -13 14 -46 29 -77 36 -30 6 -67 18 -84 25 -16 8 -21 13 -10 11 11 -2 51
-10 89 -17z m2206 1 c0 -5 -4 -10 -10 -10 -5 0 -10 5 -10 10 0 6 5 10 10 10 6
0 10 -4 10 -10z m-2419 -110 c10 -30 19 -58 19 -62 0 -13 -37 -9 -47 5 -9 12
-63 134 -63 143 0 2 16 -4 36 -14 29 -15 40 -29 55 -72z m1702 3 c-7 -2 -19
-2 -25 0 -7 3 -2 5 12 5 14 0 19 -2 13 -5z m50 -10 c-7 -2 -19 -2 -25 0 -7 3
-2 5 12 5 14 0 19 -2 13 -5z m638 -170 c38 -9 67 -18 66 -20 -7 -6 -199 17
-215 27 -29 16 72 12 149 -7z m-2213 -57 c57 -7 117 -12 133 -12 16 1 29 -2
29 -5 0 -12 240 -49 358 -56 67 -3 125 -10 128 -14 3 -5 -3 -23 -11 -40 -16
-31 -18 -31 -68 -25 -28 4 -83 16 -122 26 -38 10 -131 28 -205 40 -74 12 -158
28 -186 36 -28 8 -68 14 -90 14 -35 1 -84 26 -84 44 0 7 -7 8 118 -8z m87
-106 c-3 -5 -11 -10 -16 -10 -6 0 -7 5 -4 10 3 6 11 10 16 10 6 0 7 -4 4 -10z
m474 -76 c22 -5 31 -12 29 -23 -4 -20 -113 -24 -130 -4 -16 20 -26 17 -154
-43 l-119 -57 61 -23 c61 -23 170 -34 193 -19 8 4 20 1 29 -9 15 -15 14 -16
-10 -16 -15 0 -30 -5 -34 -11 -5 -8 -31 -10 -81 -6 -70 5 -74 4 -89 -19 -22
-33 -37 -30 -71 11 -23 28 -41 38 -98 52 -82 20 -79 19 -71 32 4 6 17 4 35 -6
27 -16 29 -16 51 5 13 12 66 35 119 52 53 17 119 41 146 54 28 13 57 26 65 29
21 8 92 8 129 1z m296 -29 c179 -49 195 -55 195 -70 0 -7 16 -16 35 -19 20 -4
33 -11 30 -16 -3 -5 7 -11 22 -13 16 -3 7 -3 -19 -1 -26 1 -66 13 -89 24 -39
20 -128 46 -299 87 -74 17 -74 18 -65 32 11 18 54 13 190 -24z m-875 -42 l35
-13 -45 5 c-25 3 -52 13 -60 22 -13 14 -12 14 10 8 14 -4 41 -14 60 -22z
m3397 -39 c-3 -3 -12 -4 -19 -1 -8 3 -5 6 6 6 11 1 17 -2 13 -5z m-2870 -30
c-3 -3 -12 -4 -19 -1 -8 3 -5 6 6 6 11 1 17 -2 13 -5z m966 -14 l78 0 18 -43
c11 -24 31 -53 45 -64 20 -16 26 -30 26 -60 0 -46 -8 -57 -27 -42 -10 9 -10 2
2 -31 18 -50 19 -96 4 -105 -6 -5 -8 -27 -3 -61 3 -30 4 -54 0 -54 -3 0 -18
26 -34 58 -23 46 -27 64 -21 97 8 50 3 65 -25 65 -34 0 -38 -11 -14 -38 22
-22 22 -24 5 -37 -9 -7 -66 -22 -125 -34 -59 -12 -127 -26 -152 -32 -25 -6
-63 -12 -85 -13 -22 0 -42 -4 -45 -8 -9 -11 -54 34 -82 82 -14 25 -40 58 -57
74 -36 34 -40 51 -11 43 11 -3 20 -1 20 4 0 5 18 22 40 38 40 29 42 29 70 13
26 -15 30 -15 42 -1 7 8 31 27 53 42 22 14 46 36 53 47 21 35 -23 25 -68 -16
-54 -49 -84 -43 -38 9 28 31 43 39 93 48 33 6 67 15 75 20 8 5 31 7 50 4 19
-2 70 -5 113 -5z m1294 -36 c257 -6 291 -9 281 -22 -23 -27 -606 -1 -728 33
-8 2 23 2 70 0 47 -3 217 -8 377 -11z m-2942 -39 c11 -5 46 -7 78 -6 62 3 70
-6 36 -38 l-20 -19 22 -21 c28 -26 45 -22 41 10 -2 19 -1 21 7 9 9 -12 11 -9
11 15 0 34 15 24 25 -18 6 -24 5 -26 -11 -21 -17 7 -17 5 2 -17 12 -13 24 -37
28 -53 l7 -28 -46 26 c-25 15 -49 24 -54 21 -5 -3 -12 -1 -16 5 -3 5 -17 10
-30 10 -44 0 -125 23 -125 36 0 7 16 16 36 20 l35 7 -30 31 c-29 30 -41 53
-23 43 4 -2 16 -8 27 -12z m357 -89 c57 -29 116 -56 131 -60 22 -5 27 -11 22
-25 -5 -15 6 -26 55 -52 33 -19 60 -39 60 -47 0 -7 17 -27 37 -45 37 -33 79
-110 68 -127 -16 -26 -164 61 -244 144 -19 20 -41 36 -48 36 -7 0 -10 6 -7 14
3 8 0 25 -7 38 -13 23 -13 23 -20 -12 -4 -19 -5 -54 -2 -77 5 -37 3 -42 -14
-40 -11 0 -43 -14 -72 -32 -42 -28 -54 -31 -66 -21 -9 7 -14 18 -12 24 3 6 0
20 -5 31 -7 14 -3 12 16 -7 51 -53 74 -32 88 81 6 44 8 90 5 103 -9 32 -65 95
-74 83 -5 -6 -19 1 -37 18 l-29 27 26 0 c14 0 72 -24 129 -54z m656 -48 c-2
-8 15 -15 49 -18 58 -6 83 -24 121 -89 21 -35 23 -47 14 -62 -7 -10 -12 -28
-12 -38 0 -32 -21 -36 -43 -10 l-20 24 8 -25 c4 -14 10 -32 12 -40 3 -8 -10 2
-29 23 -18 20 -39 37 -45 37 -20 0 -15 -34 7 -63 28 -36 25 -45 -6 -16 -14 13
-29 22 -32 19 -4 -3 -9 14 -13 36 -4 34 -15 51 -58 91 -65 59 -75 100 -32 126
31 20 82 23 79 5z m-206 -45 c14 -16 34 -44 43 -63 10 -19 20 -29 23 -22 2 7
-2 20 -10 29 -11 14 -11 16 2 11 22 -7 80 -86 80 -109 0 -11 -7 -27 -15 -36
-14 -13 -18 -13 -39 1 -32 20 -89 91 -114 142 -12 23 -29 49 -37 58 -15 15
-14 16 12 16 19 0 38 -10 55 -27z m2244 -33 c21 0 24 -3 18 -22 -25 -81 -143
-288 -164 -288 -11 0 -12 -2 -3 -8 10 -7 10 -12 0 -25 -11 -16 -25 -15 -212
14 -110 16 -231 35 -270 40 -38 5 -115 18 -170 28 -55 11 -175 35 -267 52
l-168 33 0 29 c0 22 4 27 18 23 9 -2 37 -7 62 -11 l45 -6 -52 20 c-66 24 -77
31 -66 42 5 5 46 1 96 -8 47 -9 90 -14 93 -10 4 4 8 17 9 30 2 29 31 32 130
14 49 -10 88 -12 106 -7 16 5 27 5 24 0 -3 -4 2 -11 10 -14 8 -3 14 -11 13
-17 -8 -34 203 -39 239 -6 24 21 52 22 59 2 8 -21 43 -19 79 5 17 11 42 20 56
20 14 0 52 9 85 20 32 11 65 20 72 20 7 0 29 11 49 24 28 19 41 23 60 15 13
-5 36 -9 49 -9z m-1539 -112 c27 -11 25 -12 -37 -19 -36 -4 -73 -5 -82 -3 -32
9 -19 23 25 27 23 2 47 4 54 5 6 1 24 -3 40 -10z m-377 -92 c0 -11 -19 -15
-25 -6 -3 5 1 10 9 10 9 0 16 -2 16 -4z m444 -115 c12 -13 14 -21 6 -26 -5 -3
-8 -11 -5 -16 4 -5 5 -9 3 -9 -2 0 -84 -7 -183 -15 -213 -17 -258 -18 -251 -6
4 5 25 12 49 16 23 4 59 16 79 26 22 11 78 23 134 29 54 6 100 12 102 15 12
12 50 3 66 -14z m318 -170 c253 -98 516 -215 553 -246 l20 -17 -20 8 c-11 5
-38 8 -60 7 -25 0 -33 2 -22 6 27 10 9 22 -83 56 -41 16 -113 46 -160 68 -75
34 -135 59 -320 133 -51 20 -90 44 -73 44 7 0 81 -27 165 -59z m-637 -211 c97
-41 265 -104 385 -143 73 -24 75 -25 88 -6 18 26 36 24 66 -6 32 -32 86 -35
86 -5 0 15 -9 22 -30 27 -16 3 -30 10 -30 14 0 14 51 0 82 -22 32 -22 98 -26
98 -6 0 8 -9 22 -20 32 -32 29 -15 30 23 1 35 -27 90 -35 103 -14 11 17 -33
48 -70 49 l-31 1 33 9 c29 9 36 6 65 -21 36 -33 81 -40 91 -13 5 12 9 14 18 5
15 -15 29 -15 65 -1 27 10 27 11 9 25 -19 14 -19 14 2 14 11 0 25 -7 30 -16 8
-14 21 -15 86 -9 75 7 77 8 72 31 -7 28 -5 29 35 8 17 -8 51 -15 77 -14 73 3
72 3 71 -37 -2 -33 -3 -34 -6 -9 -5 28 -5 28 -56 22 -29 -3 -73 -12 -97 -20
-25 -7 -88 -19 -140 -26 -52 -6 -169 -27 -258 -46 -90 -19 -182 -34 -204 -34
-21 0 -47 -4 -56 -9 -10 -5 -96 -18 -192 -30 -96 -11 -213 -26 -258 -32 l-84
-13 -61 34 c-206 110 -343 190 -367 213 -11 9 -26 17 -34 17 -8 0 -18 4 -21
10 -7 11 14 16 95 25 30 3 87 14 125 24 83 21 93 20 210 -29z m922 44 c-3 -3
-12 -4 -19 -1 -8 3 -5 6 6 6 11 1 17 -2 13 -5z m-64 -11 c-7 -2 -19 -2 -25 0
-7 3 -2 5 12 5 14 0 19 -2 13 -5z m-220 -80 c-7 -2 -21 -2 -30 0 -10 3 -4 5
12 5 17 0 24 -2 18 -5z m122 -3 c3 -5 -1 -10 -10 -10 -9 0 -13 5 -10 10 3 6 8
10 10 10 2 0 7 -4 10 -10z m189 -21 c-4 -7 -44 0 -44 7 0 2 11 3 24 2 14 -1
23 -5 20 -9z m-377 -15 c-3 -3 -12 -4 -19 -1 -8 3 -5 6 6 6 11 1 17 -2 13 -5z
m123 -11 c0 -12 -3 -14 -8 -7 -4 7 -16 14 -27 17 -15 4 -14 5 8 6 20 1 27 -4
27 -16z m530 -86 c9 -3 4 -6 -12 -6 -21 -1 -26 3 -21 15 3 9 9 11 12 6 3 -5
13 -12 21 -15z"/>
<path d="M2310 4040 c0 -5 5 -10 11 -10 5 0 7 5 4 10 -3 6 -8 10 -11 10 -2 0
-4 -4 -4 -10z"/>
<path d="M4488 2613 c-10 -2 -18 -9 -18 -15 0 -6 10 -8 23 -4 12 3 30 6 40 6
9 0 17 5 17 10 0 10 -30 12 -62 3z"/>
<path d="M4122 2393 c13 -24 26 -43 31 -43 14 0 7 15 -24 50 l-30 35 23 -42z"/>
<path d="M4020 2376 c0 -2 8 -10 18 -17 15 -13 16 -12 3 4 -13 16 -21 21 -21
13z"/>
<path d="M5314 2203 c8 -9 177 -45 271 -58 108 -16 131 -18 124 -10 -8 7 -255
55 -284 55 -14 0 -25 3 -25 8 0 4 -20 7 -45 8 -25 0 -43 -1 -41 -3z"/>
<path d="M4767 6459 c7 -7 15 -10 18 -7 3 3 -2 9 -12 12 -14 6 -15 5 -6 -5z"/>
<path d="M5082 6070 c0 -19 2 -27 5 -17 2 9 2 25 0 35 -3 9 -5 1 -5 -18z"/>
<path d="M4668 5768 c-4 -180 -1 -200 28 -228 l26 -25 -5 168 c-5 160 -12 197
-38 197 -5 0 -10 -51 -11 -112z"/>
<path d="M5670 4466 c0 -2 12 -12 28 -21 l27 -18 -19 21 c-17 20 -36 29 -36
18z"/>
<path d="M6757 3782 c-10 -10 -17 -35 -17 -55 0 -20 -4 -37 -10 -37 -5 0 -10
-13 -10 -29 0 -25 4 -29 34 -33 l35 -4 3 88 c3 92 -3 105 -35 70z"/>
<path d="M6713 3603 c-22 -8 -14 -22 26 -42 l39 -20 6 22 c11 41 7 47 -26 46
-18 0 -39 -3 -45 -6z"/>
<path d="M6746 3497 c-16 -12 -17 -16 -5 -35 17 -27 29 -28 29 -3 0 11 3 26 6
35 7 19 -6 21 -30 3z"/>
<path d="M6735 3396 c-13 -10 -15 -15 -6 -16 7 0 11 -6 8 -15 -4 -8 -2 -17 3
-20 5 -3 12 5 16 19 9 38 2 49 -21 32z"/>
<path d="M4625 3390 c-3 -5 -25 -10 -47 -10 -66 0 -40 -7 52 -15 l85 -7 -27
21 c-28 23 -53 27 -63 11z"/>
<path d="M6693 3300 c-36 -15 -29 -40 11 -40 28 0 34 4 38 25 6 27 -8 31 -49
15z"/>
<path d="M6699 3211 c-13 -11 -20 -20 -15 -21 5 0 4 -6 -2 -13 -8 -9 -6 -16 7
-24 17 -11 20 -7 29 30 6 23 10 43 8 44 -2 2 -14 -5 -27 -16z"/>
<path d="M6402 2818 c7 -20 48 -23 48 -4 0 11 -9 16 -26 16 -16 0 -24 -5 -22
-12z"/>
<path d="M4090 1246 c0 -8 71 -48 76 -43 3 2 -11 14 -31 26 -36 21 -45 24 -45
17z"/>
</g>
</svg>
